<svg xmlns="http://www.w3.org/2000/svg" xmlns:xlink="http://www.w3.org/1999/xlink" contentStyleType="text/css" data-diagram-type="CLASS" height="735px" preserveAspectRatio="none" style="width:648px;height:735px;background:#FFFFFF;" version="1.1" viewBox="0 0 648 735" width="648px" zoomAndPan="magnify"><title>Badginator-Schema, Revision: 0</title><defs/><g><text fill="#000000" font-family="sans-serif" font-size="14" font-weight="bold" lengthAdjust="spacing" textLength="252.6016" x="190.7189" y="22.9951">Badginator-Schema, Revision: 0</text><!--class Badge--><g class="entity" data-entity="Badge" data-source-line="6" data-uid="ent0002" id="entity_Badge"><rect fill="#FFFFFF" height="121.4844" rx="2.5" ry="2.5" style="stroke:#181818;stroke-width:0.5;" width="151.7607" x="215.38" y="441.3469"/><ellipse cx="262.1822" cy="457.3469" fill="#ADD1B2" rx="11" ry="11" style="stroke:#181818;stroke-width:1;"/><path d="M265.151,462.9875 Q264.5729,463.2844 263.9322,463.425 Q263.2916,463.5813 262.5885,463.5813 Q260.0885,463.5813 258.7604,461.9406 Q257.4479,460.2844 257.4479,457.1594 Q257.4479,454.0344 258.7604,452.3781 Q260.0885,450.7219 262.5885,450.7219 Q263.2916,450.7219 263.9322,450.8781 Q264.5885,451.0344 265.151,451.3313 L265.151,454.05 Q264.526,453.4719 263.9322,453.2063 Q263.3385,452.925 262.7135,452.925 Q261.3697,452.925 260.6822,454.0031 Q259.9947,455.0656 259.9947,457.1594 Q259.9947,459.2531 260.6822,460.3313 Q261.3697,461.3938 262.7135,461.3938 Q263.3385,461.3938 263.9322,461.1281 Q264.526,460.8469 265.151,460.2688 L265.151,462.9875 Z " fill="#000000"/><text fill="#000000" font-family="sans-serif" font-size="14" font-weight="bold" lengthAdjust="spacing" textLength="49.6563" x="282.6822" y="462.1936">Badge</text><line style="stroke:#181818;stroke-width:0.5;" x1="216.38" x2="366.1407" y1="473.3469" y2="473.3469"/><text fill="#000000" font-family="sans-serif" font-size="14" lengthAdjust="spacing" textLength="52.6299" x="221.38" y="490.342">id UUID</text><text fill="#000000" font-family="sans-serif" font-size="14" lengthAdjust="spacing" textLength="84.3418" x="221.38" y="506.6389">name string</text><text fill="#000000" font-family="sans-serif" font-size="14" lengthAdjust="spacing" textLength="122.4795" x="221.38" y="522.9357">description string</text><text fill="#000000" font-family="sans-serif" font-size="14" lengthAdjust="spacing" textLength="96.6191" x="221.38" y="539.2326">caption string</text><text fill="#000000" font-family="sans-serif" font-size="14" lengthAdjust="spacing" textLength="139.7607" x="221.38" y="555.5295">states []BadgeState</text></g><g class="entity" data-entity="GMN3" data-source-line="17" data-uid="ent0004" id="entity_GMN3"><path d="M107.44,324.9169 L107.44,365.1825 A0,0 0 0 0 107.44,365.1825 L193.59,365.1825 L249.76,440.9569 L201.59,365.1825 L261.0743,365.1825 A0,0 0 0 0 261.0743,365.1825 L261.0743,334.9169 L251.0743,324.9169 L107.44,324.9169 A0,0 0 0 0 107.44,324.9169" fill="#EAEAEA" style="stroke:#181818;stroke-width:0.5;"/><path d="M251.0743,324.9169 L251.0743,334.9169 L261.0743,334.9169 L251.0743,324.9169" fill="#EAEAEA" style="stroke:#181818;stroke-width:0.5;"/><text fill="#000000" font-family="sans-serif" font-size="13" lengthAdjust="spacing" textLength="128.502" x="117.5723" y="341.9838">Basic definition of a</text><text fill="#000000" font-family="sans-serif" font-size="13" lengthAdjust="spacing" textLength="40.7202" x="113.44" y="357.1166">badge</text></g><!--class BadgeState--><g class="entity" data-entity="BadgeState" data-source-line="21" data-uid="ent0006" id="entity_BadgeState"><rect fill="#FFFFFF" height="105.1875" rx="2.5" ry="2.5" style="stroke:#181818;stroke-width:0.5;" width="126.5498" x="227.98" y="622.8269"/><ellipse cx="244.0975" cy="638.8269" fill="#ADD1B2" rx="11" ry="11" style="stroke:#181818;stroke-width:1;"/><path d="M247.0663,644.4675 Q246.4882,644.7644 245.8475,644.905 Q245.2069,645.0613 244.5038,645.0613 Q242.0038,645.0613 240.6757,643.4206 Q239.3632,641.7644 239.3632,638.6394 Q239.3632,635.5144 240.6757,633.8581 Q242.0038,632.2019 244.5038,632.2019 Q245.2069,632.2019 245.8475,632.3581 Q246.5038,632.5144 247.0663,632.8113 L247.0663,635.53 Q246.4413,634.9519 245.8475,634.6863 Q245.2538,634.405 244.6288,634.405 Q243.285,634.405 242.5975,635.4831 Q241.91,636.5456 241.91,638.6394 Q241.91,640.7331 242.5975,641.8113 Q243.285,642.8738 244.6288,642.8738 Q245.2538,642.8738 245.8475,642.6081 Q246.4413,642.3269 247.0663,641.7488 L247.0663,644.4675 Z " fill="#000000"/><text fill="#000000" font-family="sans-serif" font-size="14" font-weight="bold" lengthAdjust="spacing" textLength="92.0664" x="258.3459" y="643.6736">BadgeState</text><line style="stroke:#181818;stroke-width:0.5;" x1="228.98" x2="353.5298" y1="654.8269" y2="654.8269"/><text fill="#000000" font-family="sans-serif" font-size="14" lengthAdjust="spacing" textLength="52.6299" x="233.98" y="671.822">id UUID</text><text fill="#000000" font-family="sans-serif" font-size="14" lengthAdjust="spacing" textLength="79.1123" x="233.98" y="688.1189">color string</text><text fill="#000000" font-family="sans-serif" font-size="14" lengthAdjust="spacing" textLength="96.6191" x="233.98" y="704.4157">caption string</text><text fill="#000000" font-family="sans-serif" font-size="14" lengthAdjust="spacing" textLength="114.5498" x="233.98" y="720.7126">badgeSvg string</text></g><g class="entity" data-entity="GMN7" data-source-line="31" data-uid="ent0008" id="entity_GMN7"><path d="M6,481.9569 L6,522.2225 A0,0 0 0 0 6,522.2225 L111.58,522.2225 L231.06,622.3369 L119.58,522.2225 L180.5117,522.2225 A0,0 0 0 0 180.5117,522.2225 L180.5117,491.9569 L170.5117,481.9569 L6,481.9569 A0,0 0 0 0 6,481.9569" fill="#EAEAEA" style="stroke:#181818;stroke-width:0.5;"/><path d="M170.5117,481.9569 L170.5117,491.9569 L180.5117,491.9569 L170.5117,481.9569" fill="#EAEAEA" style="stroke:#181818;stroke-width:0.5;"/><text fill="#000000" font-family="sans-serif" font-size="13" lengthAdjust="spacing" textLength="149.3794" x="16.1323" y="499.0238">State that a badge can</text><text fill="#000000" font-family="sans-serif" font-size="13" lengthAdjust="spacing" textLength="32.2334" x="12" y="514.1566">be in</text></g><!--class TargetObj--><g class="entity" data-entity="TargetObj" data-source-line="35" data-uid="ent0010" id="entity_TargetObj"><rect fill="#FFFFFF" height="105.1875" rx="2.5" ry="2.5" style="stroke:#181818;stroke-width:0.5;" width="146.8867" x="212.81" y="143.5669"/><ellipse cx="244.0346" cy="159.5669" fill="#ADD1B2" rx="11" ry="11" style="stroke:#181818;stroke-width:1;"/><path d="M247.0034,165.2075 Q246.4252,165.5044 245.7846,165.645 Q245.144,165.8012 244.4409,165.8012 Q241.9409,165.8012 240.6127,164.1606 Q239.3002,162.5044 239.3002,159.3794 Q239.3002,156.2544 240.6127,154.5981 Q241.9409,152.9419 244.4409,152.9419 Q245.144,152.9419 245.7846,153.0981 Q246.4409,153.2544 247.0034,153.5512 L247.0034,156.27 Q246.3784,155.6919 245.7846,155.4262 Q245.1909,155.145 244.5659,155.145 Q243.2221,155.145 242.5346,156.2231 Q241.8471,157.2856 241.8471,159.3794 Q241.8471,161.4731 242.5346,162.5512 Q243.2221,163.6137 244.5659,163.6137 Q245.1909,163.6137 245.7846,163.3481 Q246.3784,163.0669 247.0034,162.4887 L247.0034,165.2075 Z " fill="#000000"/><text fill="#000000" font-family="sans-serif" font-size="14" font-weight="bold" lengthAdjust="spacing" textLength="78.832" x="261.6401" y="164.4136">TargetObj</text><line style="stroke:#181818;stroke-width:0.5;" x1="213.81" x2="358.6967" y1="175.5669" y2="175.5669"/><text fill="#000000" font-family="sans-serif" font-size="14" lengthAdjust="spacing" textLength="52.6299" x="218.81" y="192.562">id UUID</text><text fill="#000000" font-family="sans-serif" font-size="14" lengthAdjust="spacing" textLength="84.3418" x="218.81" y="208.8589">name string</text><text fill="#000000" font-family="sans-serif" font-size="14" lengthAdjust="spacing" textLength="122.4795" x="218.81" y="225.1557">description string</text><text fill="#000000" font-family="sans-serif" font-size="14" lengthAdjust="spacing" textLength="134.8867" x="218.81" y="241.4526">badges []ObjBadge</text></g><g class="entity" data-entity="GMN11" data-source-line="45" data-uid="ent0012" id="entity_GMN11"><path d="M195.17,43.2969 L195.17,83.5625 A0,0 0 0 0 195.17,83.5625 L282.26,83.5625 L286.26,143.2269 L290.26,83.5625 L377.337,83.5625 A0,0 0 0 0 377.337,83.5625 L377.337,53.2969 L367.337,43.2969 L195.17,43.2969 A0,0 0 0 0 195.17,43.2969" fill="#EAEAEA" style="stroke:#181818;stroke-width:0.5;"/><path d="M367.337,43.2969 L367.337,53.2969 L377.337,53.2969 L367.337,43.2969" fill="#EAEAEA" style="stroke:#181818;stroke-width:0.5;"/><text fill="#000000" font-family="sans-serif" font-size="13" lengthAdjust="spacing" textLength="157.0347" x="205.3023" y="60.3638">Object that receives the</text><text fill="#000000" font-family="sans-serif" font-size="13" lengthAdjust="spacing" textLength="40.7202" x="201.17" y="75.4966">badge</text></g><!--class ObjBadge--><g class="entity" data-entity="ObjBadge" data-source-line="49" data-uid="ent0014" id="entity_ObjBadge"><rect fill="#FFFFFF" height="72.5938" rx="2.5" ry="2.5" style="stroke:#181818;stroke-width:0.5;" width="175.5566" x="296.48" y="308.7469"/><ellipse cx="341.8194" cy="324.7469" fill="#ADD1B2" rx="11" ry="11" style="stroke:#181818;stroke-width:1;"/><path d="M344.7881,330.3875 Q344.21,330.6844 343.5694,330.825 Q342.9287,330.9813 342.2256,330.9813 Q339.7256,330.9813 338.3975,329.3406 Q337.085,327.6844 337.085,324.5594 Q337.085,321.4344 338.3975,319.7781 Q339.7256,318.1219 342.2256,318.1219 Q342.9287,318.1219 343.5694,318.2781 Q344.2256,318.4344 344.7881,318.7313 L344.7881,321.45 Q344.1631,320.8719 343.5694,320.6063 Q342.9756,320.325 342.3506,320.325 Q341.0069,320.325 340.3194,321.4031 Q339.6319,322.4656 339.6319,324.5594 Q339.6319,326.6531 340.3194,327.7313 Q341.0069,328.7938 342.3506,328.7938 Q342.9756,328.7938 343.5694,328.5281 Q344.1631,328.2469 344.7881,327.6688 L344.7881,330.3875 Z " fill="#000000"/><text fill="#000000" font-family="sans-serif" font-size="14" font-weight="bold" lengthAdjust="spacing" textLength="76.3779" x="362.3194" y="329.5936">ObjBadge</text><line style="stroke:#181818;stroke-width:0.5;" x1="297.48" x2="471.0366" y1="340.7469" y2="340.7469"/><text fill="#000000" font-family="sans-serif" font-size="14" lengthAdjust="spacing" textLength="96.7217" x="302.48" y="357.742">badgeId UUID</text><text fill="#000000" font-family="sans-serif" font-size="14" lengthAdjust="spacing" textLength="163.5566" x="302.48" y="374.0389">states []ObjBadgeState</text></g><g class="entity" data-entity="GMN15" data-source-line="57" data-uid="ent0016" id="entity_GMN15"><path d="M395.18,176.0269 L395.18,216.2925 A0,0 0 0 0 395.18,216.2925 L464.38,216.2925 L407.82,308.3669 L472.38,216.2925 L567.324,216.2925 A0,0 0 0 0 567.324,216.2925 L567.324,186.0269 L557.324,176.0269 L395.18,176.0269 A0,0 0 0 0 395.18,176.0269" fill="#EAEAEA" style="stroke:#181818;stroke-width:0.5;"/><path d="M557.324,176.0269 L557.324,186.0269 L567.324,186.0269 L557.324,176.0269" fill="#EAEAEA" style="stroke:#181818;stroke-width:0.5;"/><text fill="#000000" font-family="sans-serif" font-size="13" lengthAdjust="spacing" textLength="147.0117" x="405.3123" y="193.0938">badges assigned to an</text><text fill="#000000" font-family="sans-serif" font-size="13" lengthAdjust="spacing" textLength="40.0601" x="401.18" y="208.2266">object</text></g><!--class ObjBadgeState--><g class="entity" data-entity="ObjBadgeState" data-source-line="61" data-uid="ent0018" id="entity_ObjBadgeState"><rect fill="#FFFFFF" height="88.8906" rx="2.5" ry="2.5" style="stroke:#181818;stroke-width:0.5;" width="150.7881" x="401.86" y="457.6369"/><ellipse cx="416.86" cy="473.6369" fill="#ADD1B2" rx="11" ry="11" style="stroke:#181818;stroke-width:1;"/><path d="M419.8288,479.2775 Q419.2506,479.5744 418.61,479.715 Q417.9694,479.8713 417.2663,479.8713 Q414.7663,479.8713 413.4381,478.2306 Q412.1256,476.5744 412.1256,473.4494 Q412.1256,470.3244 413.4381,468.6681 Q414.7663,467.0119 417.2663,467.0119 Q417.9694,467.0119 418.61,467.1681 Q419.2663,467.3244 419.8288,467.6213 L419.8288,470.34 Q419.2038,469.7619 418.61,469.4963 Q418.0163,469.215 417.3913,469.215 Q416.0475,469.215 415.36,470.2931 Q414.6725,471.3556 414.6725,473.4494 Q414.6725,475.5431 415.36,476.6213 Q416.0475,477.6838 417.3913,477.6838 Q418.0163,477.6838 418.61,477.4181 Q419.2038,477.1369 419.8288,476.5588 L419.8288,479.2775 Z " fill="#000000"/><text fill="#000000" font-family="sans-serif" font-size="14" font-weight="bold" lengthAdjust="spacing" textLength="118.7881" x="430.86" y="478.4836">ObjBadgeState</text><line style="stroke:#181818;stroke-width:0.5;" x1="402.86" x2="551.6481" y1="489.6369" y2="489.6369"/><text fill="#000000" font-family="sans-serif" font-size="14" lengthAdjust="spacing" textLength="104.1729" x="407.86" y="506.632">date DateTime</text><text fill="#000000" font-family="sans-serif" font-size="14" lengthAdjust="spacing" textLength="99.8047" x="407.86" y="522.9289">revision string</text><text fill="#000000" font-family="sans-serif" font-size="14" lengthAdjust="spacing" textLength="98.5879" x="407.86" y="539.2257">stateRef UUID</text></g><g class="entity" data-entity="GMN19" data-source-line="70" data-uid="ent0020" id="entity_GMN19"><path d="M507.47,324.9169 L507.47,365.1825 A0,0 0 0 0 507.47,365.1825 L558.17,365.1825 L504.6,457.3869 L566.17,365.1825 L641.0393,365.1825 A0,0 0 0 0 641.0393,365.1825 L641.0393,334.9169 L631.0393,324.9169 L507.47,324.9169 A0,0 0 0 0 507.47,324.9169" fill="#EAEAEA" style="stroke:#181818;stroke-width:0.5;"/><path d="M631.0393,324.9169 L631.0393,334.9169 L641.0393,334.9169 L631.0393,324.9169" fill="#EAEAEA" style="stroke:#181818;stroke-width:0.5;"/><text fill="#000000" font-family="sans-serif" font-size="13" lengthAdjust="spacing" textLength="108.437" x="517.6023" y="341.9838">state enty for an</text><text fill="#000000" font-family="sans-serif" font-size="13" lengthAdjust="spacing" textLength="102.7178" x="513.47" y="357.1166">assigned badge</text></g><!--link Badge to BadgeState--><g class="link" data-entity-1="Badge" data-entity-2="BadgeState" data-source-line="73" data-uid="lnk22" id="link_Badge_BadgeState"><path codeLine="73" d="M291.26,563.0169 C291.26,582.4069 291.26,603.7469 291.26,622.5069" fill="none" id="Badge-BadgeState" style="stroke:#181818;stroke-width:1;"/><text fill="#000000" font-family="sans-serif" font-size="13" lengthAdjust="spacing" textLength="24.7749" x="265.7728" y="611.8418">0..n</text></g><!--link TargetObj to ObjBadge--><g class="link" data-entity-1="TargetObj" data-entity-2="ObjBadge" data-source-line="74" data-uid="lnk23" id="link_TargetObj_ObjBadge"><path codeLine="74" d="M320.81,248.9469 C333.92,268.6069 348.55,290.5369 360.46,308.3769" fill="none" id="TargetObj-ObjBadge" style="stroke:#181818;stroke-width:1;"/><text fill="#000000" font-family="sans-serif" font-size="13" lengthAdjust="spacing" textLength="24.7749" x="330.1524" y="297.5884">0..n</text></g><!--link ObjBadge to ObjBadgeState--><g class="link" data-entity-1="ObjBadge" data-entity-2="ObjBadgeState" data-source-line="75" data-uid="lnk24" id="link_ObjBadge_ObjBadgeState"><path codeLine="75" d="M405.59,381.6169 C419.11,404.1469 436.68,433.4369 451.04,457.3769" fill="none" id="ObjBadge-ObjBadgeState" style="stroke:#181818;stroke-width:1;"/><text fill="#000000" font-family="sans-serif" font-size="13" lengthAdjust="spacing" textLength="24.7749" x="421.2478" y="446.46">0..n</text></g><!--link ObjBadge to Badge--><g class="link" data-entity-1="ObjBadge" data-entity-2="Badge" data-source-line="76" data-uid="lnk25" id="link_ObjBadge_Badge"><path codeLine="76" d="M362.92,381.6169 C352.36,399.2269 339.31,420.9769 327.26,441.0669" fill="none" id="ObjBadge-Badge" style="stroke:#181818;stroke-width:1;stroke-dasharray:7.0,7.0;"/></g><!--link ObjBadgeState to BadgeState--><g class="link" data-entity-1="ObjBadgeState" data-entity-2="BadgeState" data-source-line="77" data-uid="lnk26" id="link_ObjBadgeState_BadgeState"><path codeLine="77" d="M429.84,546.7669 C404.76,569.8669 373.81,598.3769 347.52,622.5969" fill="none" id="ObjBadgeState-BadgeState" style="stroke:#181818;stroke-width:1;stroke-dasharray:7.0,7.0;"/></g><!--SRC=[fPCxRy8m4CTtVueJR551pDrAQIMcIZocgeEnBuaBiP7j8bLLltlFDZ4aF9OcKXAVx_6xVywraWZOxFqtDEXh8nrpMwNttF86jF4uvM9RMVEbvRFP6Gl3bwTmC-QLto5CkQoKvjxOqLBKsF07ME11EMNq8qmO4plk70oA8ZXYKGo0knY40CFNUC4F0r0IrklvZBuqRn2SjqfNj9BeX5LxJ_bEHi5x1kUvHmVl7p7pCgpOBwChT03UxC6KgIevquTJWZANIgkOXpOvRMoY0seP6- -pnwpd3KJ3hIv45EisSQorF5IjvJfjweIGKorVSmyynL9A7V8WA7sDUSLjXVvjytb4pkj_w1uB1vafJLBp0ZkN2TJqGk4JjaM1wa3HliPxMhUfZzZjiaiTe-SPFV_-rll616HioBrGLLLfbEG2KL0JcU-HdGz2nzPbbC4oeyTADQ6YFHwBtjGki4njtAJDGn3z0JMTrPA6A-9c_fwWIRJH20QJyLWFpiVfD0cdxQnCrljoBqLdX_4OkY59WzQSlFy0]--></g></svg>