<svg xmlns="http://www.w3.org/2000/svg" xmlns:xlink="http://www.w3.org/1999/xlink" contentStyleType="text/css" data-diagram-type="CLASS" height="751px" preserveAspectRatio="none" style="width:642px;height:751px;background:#FFFFFF;" version="1.1" viewBox="0 0 642 751" width="642px" zoomAndPan="magnify"><title>Badginator Domain Model, Revision: 0</title><defs/><g><text fill="#000000" font-family="sans-serif" font-size="14" font-weight="bold" lengthAdjust="spacing" textLength="302.5654" x="162.867" y="22.9951">Badginator Domain Model, Revision: 0</text><!--class Badge--><g class="entity" data-entity="Badge" data-source-line="6" data-uid="ent0002" id="entity_Badge"><rect fill="#FFFFFF" height="121.4844" rx="2.5" ry="2.5" style="stroke:#181818;stroke-width:0.5;" width="151.7607" x="187.63" y="457.6469"/><ellipse cx="234.4322" cy="473.6469" fill="#ADD1B2" rx="11" ry="11" style="stroke:#181818;stroke-width:1;"/><path d="M237.401,479.2875 Q236.8229,479.5844 236.1822,479.725 Q235.5416,479.8812 234.8385,479.8812 Q232.3385,479.8812 231.0104,478.2406 Q229.6979,476.5844 229.6979,473.4594 Q229.6979,470.3344 231.0104,468.6781 Q232.3385,467.0219 234.8385,467.0219 Q235.5416,467.0219 236.1822,467.1781 Q236.8385,467.3344 237.401,467.6312 L237.401,470.35 Q236.776,469.7719 236.1822,469.5062 Q235.5885,469.225 234.9635,469.225 Q233.6197,469.225 232.9322,470.3031 Q232.2447,471.3656 232.2447,473.4594 Q232.2447,475.5531 232.9322,476.6312 Q233.6197,477.6937 234.9635,477.6937 Q235.5885,477.6937 236.1822,477.4281 Q236.776,477.1469 237.401,476.5687 L237.401,479.2875 Z " fill="#000000"/><text fill="#000000" font-family="sans-serif" font-size="14" font-weight="bold" lengthAdjust="spacing" textLength="49.6563" x="254.9322" y="478.4936">Badge</text><line style="stroke:#181818;stroke-width:0.5;" x1="188.63" x2="338.3907" y1="489.6469" y2="489.6469"/><text fill="#000000" font-family="sans-serif" font-size="14" lengthAdjust="spacing" textLength="52.6299" x="193.63" y="506.642">id UUID</text><text fill="#000000" font-family="sans-serif" font-size="14" lengthAdjust="spacing" textLength="84.3418" x="193.63" y="522.9389">name string</text><text fill="#000000" font-family="sans-serif" font-size="14" lengthAdjust="spacing" textLength="122.4795" x="193.63" y="539.2357">description string</text><text fill="#000000" font-family="sans-serif" font-size="14" lengthAdjust="spacing" textLength="96.6191" x="193.63" y="555.5326">caption string</text><text fill="#000000" font-family="sans-serif" font-size="14" lengthAdjust="spacing" textLength="139.7607" x="193.63" y="571.8295">states []BadgeState</text></g><g class="entity" data-entity="GMN3" data-source-line="17" data-uid="ent0004" id="entity_GMN3"><path d="M69.75,333.0669 L69.75,373.3325 A0,0 0 0 0 69.75,373.3325 L151.11,373.3325 L218.26,457.3569 L159.11,373.3325 L211.2856,373.3325 A0,0 0 0 0 211.2856,373.3325 L211.2856,343.0669 L201.2856,333.0669 L69.75,333.0669 A0,0 0 0 0 69.75,333.0669" fill="#EAEAEA" style="stroke:#181818;stroke-width:0.5;"/><path d="M201.2856,333.0669 L201.2856,343.0669 L211.2856,343.0669 L201.2856,333.0669" fill="#EAEAEA" style="stroke:#181818;stroke-width:0.5;"/><text fill="#000000" font-family="sans-serif" font-size="13" lengthAdjust="spacing" textLength="116.4033" x="79.8823" y="350.1338">Basic definition of</text><text fill="#000000" font-family="sans-serif" font-size="13" lengthAdjust="spacing" textLength="52.8188" x="75.75" y="365.2666">a badge</text></g><!--class BadgeState--><g class="entity" data-entity="BadgeState" data-source-line="21" data-uid="ent0006" id="entity_BadgeState"><rect fill="#FFFFFF" height="105.1875" rx="2.5" ry="2.5" style="stroke:#181818;stroke-width:0.5;" width="126.5498" x="200.24" y="639.1269"/><ellipse cx="216.3575" cy="655.1269" fill="#ADD1B2" rx="11" ry="11" style="stroke:#181818;stroke-width:1;"/><path d="M219.3263,660.7675 Q218.7482,661.0644 218.1075,661.205 Q217.4669,661.3612 216.7638,661.3612 Q214.2638,661.3612 212.9357,659.7206 Q211.6232,658.0644 211.6232,654.9394 Q211.6232,651.8144 212.9357,650.1581 Q214.2638,648.5019 216.7638,648.5019 Q217.4669,648.5019 218.1075,648.6581 Q218.7638,648.8144 219.3263,649.1112 L219.3263,651.83 Q218.7013,651.2519 218.1075,650.9862 Q217.5138,650.705 216.8888,650.705 Q215.545,650.705 214.8575,651.7831 Q214.17,652.8456 214.17,654.9394 Q214.17,657.0331 214.8575,658.1112 Q215.545,659.1737 216.8888,659.1737 Q217.5138,659.1737 218.1075,658.9081 Q218.7013,658.6269 219.3263,658.0487 L219.3263,660.7675 Z " fill="#000000"/><text fill="#000000" font-family="sans-serif" font-size="14" font-weight="bold" lengthAdjust="spacing" textLength="92.0664" x="230.6059" y="659.9736">BadgeState</text><line style="stroke:#181818;stroke-width:0.5;" x1="201.24" x2="325.7898" y1="671.1269" y2="671.1269"/><text fill="#000000" font-family="sans-serif" font-size="14" lengthAdjust="spacing" textLength="52.6299" x="206.24" y="688.122">id UUID</text><text fill="#000000" font-family="sans-serif" font-size="14" lengthAdjust="spacing" textLength="79.1123" x="206.24" y="704.4189">color string</text><text fill="#000000" font-family="sans-serif" font-size="14" lengthAdjust="spacing" textLength="96.6191" x="206.24" y="720.7157">caption string</text><text fill="#000000" font-family="sans-serif" font-size="14" lengthAdjust="spacing" textLength="114.5498" x="206.24" y="737.0126">badgeSvg string</text></g><g class="entity" data-entity="GMN7" data-source-line="31" data-uid="ent0008" id="entity_GMN7"><path d="M6,498.2569 L6,538.5225 A0,0 0 0 0 6,538.5225 L96.26,538.5225 L207.57,638.6369 L104.26,538.5225 L153.0264,538.5225 A0,0 0 0 0 153.0264,538.5225 L153.0264,508.2569 L143.0264,498.2569 L6,498.2569 A0,0 0 0 0 6,498.2569" fill="#EAEAEA" style="stroke:#181818;stroke-width:0.5;"/><path d="M143.0264,498.2569 L143.0264,508.2569 L153.0264,508.2569 L143.0264,498.2569" fill="#EAEAEA" style="stroke:#181818;stroke-width:0.5;"/><text fill="#000000" font-family="sans-serif" font-size="13" lengthAdjust="spacing" textLength="121.894" x="16.1323" y="515.3238">State that a badge</text><text fill="#000000" font-family="sans-serif" font-size="13" lengthAdjust="spacing" textLength="59.7188" x="12" y="530.4566">can be in</text></g><!--class TargetObj--><g class="entity" data-entity="TargetObj" data-source-line="35" data-uid="ent0010" id="entity_TargetObj"><rect fill="#FFFFFF" height="105.1875" rx="2.5" ry="2.5" style="stroke:#181818;stroke-width:0.5;" width="146.8867" x="191.07" y="143.5669"/><ellipse cx="222.2946" cy="159.5669" fill="#ADD1B2" rx="11" ry="11" style="stroke:#181818;stroke-width:1;"/><path d="M225.2634,165.2075 Q224.6852,165.5044 224.0446,165.645 Q223.404,165.8012 222.7009,165.8012 Q220.2009,165.8012 218.8727,164.1606 Q217.5602,162.5044 217.5602,159.3794 Q217.5602,156.2544 218.8727,154.5981 Q220.2009,152.9419 222.7009,152.9419 Q223.404,152.9419 224.0446,153.0981 Q224.7009,153.2544 225.2634,153.5512 L225.2634,156.27 Q224.6384,155.6919 224.0446,155.4262 Q223.4509,155.145 222.8259,155.145 Q221.4821,155.145 220.7946,156.2231 Q220.1071,157.2856 220.1071,159.3794 Q220.1071,161.4731 220.7946,162.5512 Q221.4821,163.6137 222.8259,163.6137 Q223.4509,163.6137 224.0446,163.3481 Q224.6384,163.0669 225.2634,162.4887 L225.2634,165.2075 Z " fill="#000000"/><text fill="#000000" font-family="sans-serif" font-size="14" font-weight="bold" lengthAdjust="spacing" textLength="78.832" x="239.9001" y="164.4136">TargetObj</text><line style="stroke:#181818;stroke-width:0.5;" x1="192.07" x2="336.9567" y1="175.5669" y2="175.5669"/><text fill="#000000" font-family="sans-serif" font-size="14" lengthAdjust="spacing" textLength="52.6299" x="197.07" y="192.562">id UUID</text><text fill="#000000" font-family="sans-serif" font-size="14" lengthAdjust="spacing" textLength="84.3418" x="197.07" y="208.8589">name string</text><text fill="#000000" font-family="sans-serif" font-size="14" lengthAdjust="spacing" textLength="122.4795" x="197.07" y="225.1557">description string</text><text fill="#000000" font-family="sans-serif" font-size="14" lengthAdjust="spacing" textLength="134.8867" x="197.07" y="241.4526">badges []ObjBadge</text></g><g class="entity" data-entity="GMN11" data-source-line="45" data-uid="ent0012" id="entity_GMN11"><path d="M191.57,43.2969 L191.57,83.5625 A0,0 0 0 0 191.57,83.5625 L260.51,83.5625 L264.51,143.2269 L268.51,83.5625 L337.4538,83.5625 A0,0 0 0 0 337.4538,83.5625 L337.4538,53.2969 L327.4538,43.2969 L191.57,43.2969 A0,0 0 0 0 191.57,43.2969" fill="#EAEAEA" style="stroke:#181818;stroke-width:0.5;"/><path d="M327.4538,43.2969 L327.4538,53.2969 L337.4538,53.2969 L327.4538,43.2969" fill="#EAEAEA" style="stroke:#181818;stroke-width:0.5;"/><text fill="#000000" font-family="sans-serif" font-size="13" lengthAdjust="spacing" textLength="72.8711" x="201.7023" y="60.3638">Object that</text><text fill="#000000" font-family="sans-serif" font-size="13" lengthAdjust="spacing" textLength="124.8838" x="197.57" y="75.4966">receives the badge</text></g><!--class ObjBadge--><g class="entity" data-entity="ObjBadge" data-source-line="49" data-uid="ent0014" id="entity_ObjBadge"><rect fill="#FFFFFF" height="88.8906" rx="2.5" ry="2.5" style="stroke:#181818;stroke-width:0.5;" width="220.0723" x="246.48" y="308.7569"/><ellipse cx="314.0772" cy="324.7569" fill="#ADD1B2" rx="11" ry="11" style="stroke:#181818;stroke-width:1;"/><path d="M317.0459,330.3975 Q316.4678,330.6944 315.8272,330.835 Q315.1865,330.9913 314.4834,330.9913 Q311.9834,330.9913 310.6553,329.3506 Q309.3428,327.6944 309.3428,324.5694 Q309.3428,321.4444 310.6553,319.7881 Q311.9834,318.1319 314.4834,318.1319 Q315.1865,318.1319 315.8272,318.2881 Q316.4834,318.4444 317.0459,318.7413 L317.0459,321.46 Q316.4209,320.8819 315.8272,320.6163 Q315.2334,320.335 314.6084,320.335 Q313.2647,320.335 312.5772,321.4131 Q311.8897,322.4756 311.8897,324.5694 Q311.8897,326.6631 312.5772,327.7413 Q313.2647,328.8038 314.6084,328.8038 Q315.2334,328.8038 315.8272,328.5381 Q316.4209,328.2569 317.0459,327.6788 L317.0459,330.3975 Z " fill="#000000"/><text fill="#000000" font-family="sans-serif" font-size="14" font-weight="bold" lengthAdjust="spacing" textLength="76.3779" x="334.5772" y="329.6036">ObjBadge</text><line style="stroke:#181818;stroke-width:0.5;" x1="247.48" x2="465.5523" y1="340.7569" y2="340.7569"/><text fill="#000000" font-family="sans-serif" font-size="14" lengthAdjust="spacing" textLength="96.7217" x="252.48" y="357.752">badgeId UUID</text><text fill="#000000" font-family="sans-serif" font-size="14" lengthAdjust="spacing" textLength="163.5566" x="252.48" y="374.0489">states []ObjBadgeState</text><text fill="#000000" font-family="sans-serif" font-size="14" lengthAdjust="spacing" textLength="208.0723" x="252.48" y="390.3457">statesByRev []ObjBadgeState</text></g><g class="entity" data-entity="GMN15" data-source-line="58" data-uid="ent0016" id="entity_GMN15"><path d="M372.61,176.0269 L372.61,216.2925 A0,0 0 0 0 372.61,216.2925 L433.05,216.2925 L382.44,308.4969 L441.05,216.2925 L524.4162,216.2925 A0,0 0 0 0 524.4162,216.2925 L524.4162,186.0269 L514.4162,176.0269 L372.61,176.0269 A0,0 0 0 0 372.61,176.0269" fill="#EAEAEA" style="stroke:#181818;stroke-width:0.5;"/><path d="M514.4162,176.0269 L514.4162,186.0269 L524.4162,186.0269 L514.4162,176.0269" fill="#EAEAEA" style="stroke:#181818;stroke-width:0.5;"/><text fill="#000000" font-family="sans-serif" font-size="13" lengthAdjust="spacing" textLength="126.6738" x="382.7423" y="193.0938">badges assigned to</text><text fill="#000000" font-family="sans-serif" font-size="13" lengthAdjust="spacing" textLength="60.3979" x="378.61" y="208.2266">an object</text></g><!--class ObjBadgeState--><g class="entity" data-entity="ObjBadgeState" data-source-line="62" data-uid="ent0018" id="entity_ObjBadgeState"><rect fill="#FFFFFF" height="105.1875" rx="2.5" ry="2.5" style="stroke:#181818;stroke-width:0.5;" width="150.7881" x="374.12" y="465.7969"/><ellipse cx="389.12" cy="481.7969" fill="#ADD1B2" rx="11" ry="11" style="stroke:#181818;stroke-width:1;"/><path d="M392.0888,487.4375 Q391.5106,487.7344 390.87,487.875 Q390.2294,488.0313 389.5263,488.0313 Q387.0263,488.0313 385.6981,486.3906 Q384.3856,484.7344 384.3856,481.6094 Q384.3856,478.4844 385.6981,476.8281 Q387.0263,475.1719 389.5263,475.1719 Q390.2294,475.1719 390.87,475.3281 Q391.5263,475.4844 392.0888,475.7813 L392.0888,478.5 Q391.4638,477.9219 390.87,477.6563 Q390.2763,477.375 389.6513,477.375 Q388.3075,477.375 387.62,478.4531 Q386.9325,479.5156 386.9325,481.6094 Q386.9325,483.7031 387.62,484.7813 Q388.3075,485.8438 389.6513,485.8438 Q390.2763,485.8438 390.87,485.5781 Q391.4638,485.2969 392.0888,484.7188 L392.0888,487.4375 Z " fill="#000000"/><text fill="#000000" font-family="sans-serif" font-size="14" font-weight="bold" lengthAdjust="spacing" textLength="118.7881" x="403.12" y="486.6436">ObjBadgeState</text><line style="stroke:#181818;stroke-width:0.5;" x1="375.12" x2="523.9081" y1="497.7969" y2="497.7969"/><text fill="#000000" font-family="sans-serif" font-size="14" lengthAdjust="spacing" textLength="104.1729" x="380.12" y="514.792">date DateTime</text><text fill="#000000" font-family="sans-serif" font-size="14" lengthAdjust="spacing" textLength="99.8047" x="380.12" y="531.0889">revision string</text><text fill="#000000" font-family="sans-serif" font-size="14" lengthAdjust="spacing" textLength="96.6191" x="380.12" y="547.3857">caption string</text><text fill="#000000" font-family="sans-serif" font-size="14" lengthAdjust="spacing" textLength="98.5879" x="380.12" y="563.6826">stateRef UUID</text></g><g class="entity" data-entity="GMN19" data-source-line="72" data-uid="ent0020" id="entity_GMN19"><path d="M501.73,333.0669 L501.73,373.3325 A0,0 0 0 0 501.73,373.3325 L550.4,373.3325 L487.28,465.5869 L558.4,373.3325 L635.2993,373.3325 A0,0 0 0 0 635.2993,373.3325 L635.2993,343.0669 L625.2993,333.0669 L501.73,333.0669 A0,0 0 0 0 501.73,333.0669" fill="#EAEAEA" style="stroke:#181818;stroke-width:0.5;"/><path d="M625.2993,333.0669 L625.2993,343.0669 L635.2993,343.0669 L625.2993,333.0669" fill="#EAEAEA" style="stroke:#181818;stroke-width:0.5;"/><text fill="#000000" font-family="sans-serif" font-size="13" lengthAdjust="spacing" textLength="108.437" x="511.8623" y="350.1338">state enty for an</text><text fill="#000000" font-family="sans-serif" font-size="13" lengthAdjust="spacing" textLength="102.7178" x="507.73" y="365.2666">assigned badge</text></g><!--link Badge to BadgeState--><g class="link" data-entity-1="Badge" data-entity-2="BadgeState" data-source-line="75" data-uid="lnk22" id="link_Badge_BadgeState"><path codeLine="75" d="M263.51,579.3169 C263.51,598.7069 263.51,620.0469 263.51,638.8069" fill="none" id="Badge-BadgeState" style="stroke:#181818;stroke-width:1;"/><text fill="#000000" font-family="sans-serif" font-size="13" lengthAdjust="spacing" textLength="24.7749" x="238.0215" y="628.1418">0..n</text></g><!--link TargetObj to ObjBadge--><g class="link" data-entity-1="TargetObj" data-entity-2="ObjBadge" data-source-line="76" data-uid="lnk23" id="link_TargetObj_ObjBadge"><path codeLine="76" d="M295.4,249.2169 C306.78,268.3969 319.55,289.9069 330.46,308.2969" fill="none" id="TargetObj-ObjBadge" style="stroke:#181818;stroke-width:1;"/><text fill="#000000" font-family="sans-serif" font-size="13" lengthAdjust="spacing" textLength="24.7749" x="300.9274" y="297.6765">0..n</text></g><!--link ObjBadge to ObjBadgeState--><g class="link" data-entity-1="ObjBadge" data-entity-2="ObjBadgeState" data-source-line="77" data-uid="lnk24" id="link_ObjBadge_ObjBadgeState"><path codeLine="77" d="M381.44,397.9269 C393.27,418.6969 407.51,443.6769 419.89,465.4069" fill="none" id="ObjBadge-ObjBadgeState" style="stroke:#181818;stroke-width:1;"/><text fill="#000000" font-family="sans-serif" font-size="13" lengthAdjust="spacing" textLength="24.7749" x="390.6066" y="454.7328">0..n</text></g><!--link ObjBadge to Badge--><g class="link" data-entity-1="ObjBadge" data-entity-2="Badge" data-source-line="78" data-uid="lnk25" id="link_ObjBadge_Badge"><path codeLine="78" d="M331.59,397.9269 C321.21,416.1569 308.98,437.6069 297.77,457.2769" fill="none" id="ObjBadge-Badge" style="stroke:#181818;stroke-width:1;stroke-dasharray:7.0,7.0;"/></g><!--link ObjBadgeState to BadgeState--><g class="link" data-entity-1="ObjBadgeState" data-entity-2="BadgeState" data-source-line="79" data-uid="lnk26" id="link_ObjBadgeState_BadgeState"><path codeLine="79" d="M393.2,571.2569 C370,592.6269 343.17,617.3469 319.95,638.7369" fill="none" id="ObjBadgeState-BadgeState" style="stroke:#181818;stroke-width:1;stroke-dasharray:7.0,7.0;"/></g><!--SRC=[fLCzRy8m4DtpAqvXGoLYxbPAAp5KbVYOgWucleGhYOrY5mbL_UyzsyGG8EtGH4fot-yzNpOa4R3UsGFKQ3TQciHiIUr48sfGsk94vDkoqPzAFkfADp1uUd1tabYo5S94o9AKi1oPwbgGWXSjiRg3EUx9a5RtC4wIl1B6G3eSkdGS3bCGnfSYmE3PN_2L0924rMesvIybQWHZ6r8bMn9Dtj3ESh-JCnSN3cE5HGDlxxxpmbd9TyANum5Mxq0NOIedyuUXd3iNfCZtqGMx1Qnz0YhfwLzYzrtF2NX77ulSIzQFsCzQxClMSnjjOCAGmoox4JRYT4qLh158tSAy54s9zdNzSOGSxN_exWSxcRbDKFCATXpZKFCBS-jXizbWZhJdUhl1VgtRraVOhTb5xQjd4Ney_ZQxrIq49WTUoQle5VH82Y9JnaIbGiafRaDuKpoZtt2Vhqd7rsKWdMVAZoNLwCK9FyrVIpx78h3kXHztnkS3Alx12zv5eHo5bj25_a7ZqGZISPQfz7pxJejp2aUful5Snq9rJCWow9O4KLftoFu1]--></g></svg>