<svg xmlns="http://www.w3.org/2000/svg" xmlns:xlink="http://www.w3.org/1999/xlink" contentStyleType="text/css" data-diagram-type="CLASS" height="751px" preserveAspectRatio="none" style="width:670px;height:751px;background:#FFFFFF;" version="1.1" viewBox="0 0 670 751" width="670px" zoomAndPan="magnify"><title>Badginator Domain Model, Revision: 0</title><defs/><g><text fill="#000000" font-family="sans-serif" font-size="14" font-weight="bold" lengthAdjust="spacing" textLength="302.5654" x="176.737" y="22.9951">Badginator Domain Model, Revision: 0</text><!--class Badge--><g class="entity" data-entity="Badge" data-source-line="6" data-uid="ent0002" id="entity_Badge"><rect fill="#FFFFFF" height="121.4844" rx="2.5" ry="2.5" style="stroke:#181818;stroke-width:0.5;" width="151.7607" x="215.38" y="457.6469"/><ellipse cx="262.1822" cy="473.6469" fill="#ADD1B2" rx="11" ry="11" style="stroke:#181818;stroke-width:1;"/><path d="M265.151,479.2875 Q264.5729,479.5844 263.9322,479.725 Q263.2916,479.8812 262.5885,479.8812 Q260.0885,479.8812 258.7604,478.2406 Q257.4479,476.5844 257.4479,473.4594 Q257.4479,470.3344 258.7604,468.6781 Q260.0885,467.0219 262.5885,467.0219 Q263.2916,467.0219 263.9322,467.1781 Q264.5885,467.3344 265.151,467.6312 L265.151,470.35 Q264.526,469.7719 263.9322,469.5062 Q263.3385,469.225 262.7135,469.225 Q261.3697,469.225 260.6822,470.3031 Q259.9947,471.3656 259.9947,473.4594 Q259.9947,475.5531 260.6822,476.6312 Q261.3697,477.6937 262.7135,477.6937 Q263.3385,477.6937 263.9322,477.4281 Q264.526,477.1469 265.151,476.5687 L265.151,479.2875 Z " fill="#000000"/><text fill="#000000" font-family="sans-serif" font-size="14" font-weight="bold" lengthAdjust="spacing" textLength="49.6563" x="282.6822" y="478.4936">Badge</text><line style="stroke:#181818;stroke-width:0.5;" x1="216.38" x2="366.1407" y1="489.6469" y2="489.6469"/><text fill="#000000" font-family="sans-serif" font-size="14" lengthAdjust="spacing" textLength="52.6299" x="221.38" y="506.642">id UUID</text><text fill="#000000" font-family="sans-serif" font-size="14" lengthAdjust="spacing" textLength="84.3418" x="221.38" y="522.9389">name string</text><text fill="#000000" font-family="sans-serif" font-size="14" lengthAdjust="spacing" textLength="122.4795" x="221.38" y="539.2357">description string</text><text fill="#000000" font-family="sans-serif" font-size="14" lengthAdjust="spacing" textLength="96.6191" x="221.38" y="555.5326">caption string</text><text fill="#000000" font-family="sans-serif" font-size="14" lengthAdjust="spacing" textLength="139.7607" x="221.38" y="571.8295">states []BadgeState</text></g><g class="entity" data-entity="GMN3" data-source-line="17" data-uid="ent0004" id="entity_GMN3"><path d="M85.44,333.0669 L85.44,373.3325 A0,0 0 0 0 85.44,373.3325 L173.56,373.3325 L243.8,457.3569 L181.56,373.3325 L239.0743,373.3325 A0,0 0 0 0 239.0743,373.3325 L239.0743,343.0669 L229.0743,333.0669 L85.44,333.0669 A0,0 0 0 0 85.44,333.0669" fill="#EAEAEA" style="stroke:#181818;stroke-width:0.5;"/><path d="M229.0743,333.0669 L229.0743,343.0669 L239.0743,343.0669 L229.0743,333.0669" fill="#EAEAEA" style="stroke:#181818;stroke-width:0.5;"/><text fill="#000000" font-family="sans-serif" font-size="13" lengthAdjust="spacing" textLength="128.502" x="95.5723" y="350.1338">Basic definition of a</text><text fill="#000000" font-family="sans-serif" font-size="13" lengthAdjust="spacing" textLength="40.7202" x="91.44" y="365.2666">badge</text></g><!--class BadgeState--><g class="entity" data-entity="BadgeState" data-source-line="21" data-uid="ent0006" id="entity_BadgeState"><rect fill="#FFFFFF" height="105.1875" rx="2.5" ry="2.5" style="stroke:#181818;stroke-width:0.5;" width="126.5498" x="227.98" y="639.1269"/><ellipse cx="244.0975" cy="655.1269" fill="#ADD1B2" rx="11" ry="11" style="stroke:#181818;stroke-width:1;"/><path d="M247.0663,660.7675 Q246.4882,661.0644 245.8475,661.205 Q245.2069,661.3612 244.5038,661.3612 Q242.0038,661.3612 240.6757,659.7206 Q239.3632,658.0644 239.3632,654.9394 Q239.3632,651.8144 240.6757,650.1581 Q242.0038,648.5019 244.5038,648.5019 Q245.2069,648.5019 245.8475,648.6581 Q246.5038,648.8144 247.0663,649.1112 L247.0663,651.83 Q246.4413,651.2519 245.8475,650.9862 Q245.2538,650.705 244.6288,650.705 Q243.285,650.705 242.5975,651.7831 Q241.91,652.8456 241.91,654.9394 Q241.91,657.0331 242.5975,658.1112 Q243.285,659.1737 244.6288,659.1737 Q245.2538,659.1737 245.8475,658.9081 Q246.4413,658.6269 247.0663,658.0487 L247.0663,660.7675 Z " fill="#000000"/><text fill="#000000" font-family="sans-serif" font-size="14" font-weight="bold" lengthAdjust="spacing" textLength="92.0664" x="258.3459" y="659.9736">BadgeState</text><line style="stroke:#181818;stroke-width:0.5;" x1="228.98" x2="353.5298" y1="671.1269" y2="671.1269"/><text fill="#000000" font-family="sans-serif" font-size="14" lengthAdjust="spacing" textLength="52.6299" x="233.98" y="688.122">id UUID</text><text fill="#000000" font-family="sans-serif" font-size="14" lengthAdjust="spacing" textLength="79.1123" x="233.98" y="704.4189">color string</text><text fill="#000000" font-family="sans-serif" font-size="14" lengthAdjust="spacing" textLength="96.6191" x="233.98" y="720.7157">caption string</text><text fill="#000000" font-family="sans-serif" font-size="14" lengthAdjust="spacing" textLength="114.5498" x="233.98" y="737.0126">badgeSvg string</text></g><g class="entity" data-entity="GMN7" data-source-line="31" data-uid="ent0008" id="entity_GMN7"><path d="M6,498.2569 L6,538.5225 A0,0 0 0 0 6,538.5225 L111.58,538.5225 L231.06,638.6369 L119.58,538.5225 L180.5117,538.5225 A0,0 0 0 0 180.5117,538.5225 L180.5117,508.2569 L170.5117,498.2569 L6,498.2569 A0,0 0 0 0 6,498.2569" fill="#EAEAEA" style="stroke:#181818;stroke-width:0.5;"/><path d="M170.5117,498.2569 L170.5117,508.2569 L180.5117,508.2569 L170.5117,498.2569" fill="#EAEAEA" style="stroke:#181818;stroke-width:0.5;"/><text fill="#000000" font-family="sans-serif" font-size="13" lengthAdjust="spacing" textLength="149.3794" x="16.1323" y="515.3238">State that a badge can</text><text fill="#000000" font-family="sans-serif" font-size="13" lengthAdjust="spacing" textLength="32.2334" x="12" y="530.4566">be in</text></g><!--class TargetObj--><g class="entity" data-entity="TargetObj" data-source-line="35" data-uid="ent0010" id="entity_TargetObj"><rect fill="#FFFFFF" height="105.1875" rx="2.5" ry="2.5" style="stroke:#181818;stroke-width:0.5;" width="146.8867" x="212.81" y="143.5669"/><ellipse cx="244.0346" cy="159.5669" fill="#ADD1B2" rx="11" ry="11" style="stroke:#181818;stroke-width:1;"/><path d="M247.0034,165.2075 Q246.4252,165.5044 245.7846,165.645 Q245.144,165.8012 244.4409,165.8012 Q241.9409,165.8012 240.6127,164.1606 Q239.3002,162.5044 239.3002,159.3794 Q239.3002,156.2544 240.6127,154.5981 Q241.9409,152.9419 244.4409,152.9419 Q245.144,152.9419 245.7846,153.0981 Q246.4409,153.2544 247.0034,153.5512 L247.0034,156.27 Q246.3784,155.6919 245.7846,155.4262 Q245.1909,155.145 244.5659,155.145 Q243.2221,155.145 242.5346,156.2231 Q241.8471,157.2856 241.8471,159.3794 Q241.8471,161.4731 242.5346,162.5512 Q243.2221,163.6137 244.5659,163.6137 Q245.1909,163.6137 245.7846,163.3481 Q246.3784,163.0669 247.0034,162.4887 L247.0034,165.2075 Z " fill="#000000"/><text fill="#000000" font-family="sans-serif" font-size="14" font-weight="bold" lengthAdjust="spacing" textLength="78.832" x="261.6401" y="164.4136">TargetObj</text><line style="stroke:#181818;stroke-width:0.5;" x1="213.81" x2="358.6967" y1="175.5669" y2="175.5669"/><text fill="#000000" font-family="sans-serif" font-size="14" lengthAdjust="spacing" textLength="52.6299" x="218.81" y="192.562">id UUID</text><text fill="#000000" font-family="sans-serif" font-size="14" lengthAdjust="spacing" textLength="84.3418" x="218.81" y="208.8589">name string</text><text fill="#000000" font-family="sans-serif" font-size="14" lengthAdjust="spacing" textLength="122.4795" x="218.81" y="225.1557">description string</text><text fill="#000000" font-family="sans-serif" font-size="14" lengthAdjust="spacing" textLength="134.8867" x="218.81" y="241.4526">badges []ObjBadge</text></g><g class="entity" data-entity="GMN11" data-source-line="45" data-uid="ent0012" id="entity_GMN11"><path d="M195.17,43.2969 L195.17,83.5625 A0,0 0 0 0 195.17,83.5625 L282.26,83.5625 L286.26,143.2269 L290.26,83.5625 L377.337,83.5625 A0,0 0 0 0 377.337,83.5625 L377.337,53.2969 L367.337,43.2969 L195.17,43.2969 A0,0 0 0 0 195.17,43.2969" fill="#EAEAEA" style="stroke:#181818;stroke-width:0.5;"/><path d="M367.337,43.2969 L367.337,53.2969 L377.337,53.2969 L367.337,43.2969" fill="#EAEAEA" style="stroke:#181818;stroke-width:0.5;"/><text fill="#000000" font-family="sans-serif" font-size="13" lengthAdjust="spacing" textLength="157.0347" x="205.3023" y="60.3638">Object that receives the</text><text fill="#000000" font-family="sans-serif" font-size="13" lengthAdjust="spacing" textLength="40.7202" x="201.17" y="75.4966">badge</text></g><!--class ObjBadge--><g class="entity" data-entity="ObjBadge" data-source-line="49" data-uid="ent0014" id="entity_ObjBadge"><rect fill="#FFFFFF" height="88.8906" rx="2.5" ry="2.5" style="stroke:#181818;stroke-width:0.5;" width="220.0723" x="274.22" y="308.7569"/><ellipse cx="341.8172" cy="324.7569" fill="#ADD1B2" rx="11" ry="11" style="stroke:#181818;stroke-width:1;"/><path d="M344.7859,330.3975 Q344.2078,330.6944 343.5672,330.835 Q342.9265,330.9913 342.2234,330.9913 Q339.7234,330.9913 338.3953,329.3506 Q337.0828,327.6944 337.0828,324.5694 Q337.0828,321.4444 338.3953,319.7881 Q339.7234,318.1319 342.2234,318.1319 Q342.9265,318.1319 343.5672,318.2881 Q344.2234,318.4444 344.7859,318.7413 L344.7859,321.46 Q344.1609,320.8819 343.5672,320.6163 Q342.9734,320.335 342.3484,320.335 Q341.0047,320.335 340.3172,321.4131 Q339.6297,322.4756 339.6297,324.5694 Q339.6297,326.6631 340.3172,327.7413 Q341.0047,328.8038 342.3484,328.8038 Q342.9734,328.8038 343.5672,328.5381 Q344.1609,328.2569 344.7859,327.6788 L344.7859,330.3975 Z " fill="#000000"/><text fill="#000000" font-family="sans-serif" font-size="14" font-weight="bold" lengthAdjust="spacing" textLength="76.3779" x="362.3172" y="329.6036">ObjBadge</text><line style="stroke:#181818;stroke-width:0.5;" x1="275.22" x2="493.2923" y1="340.7569" y2="340.7569"/><text fill="#000000" font-family="sans-serif" font-size="14" lengthAdjust="spacing" textLength="96.7217" x="280.22" y="357.752">badgeId UUID</text><text fill="#000000" font-family="sans-serif" font-size="14" lengthAdjust="spacing" textLength="163.5566" x="280.22" y="374.0489">states []ObjBadgeState</text><text fill="#000000" font-family="sans-serif" font-size="14" lengthAdjust="spacing" textLength="208.0723" x="280.22" y="390.3457">statesByRev []ObjBadgeState</text></g><g class="entity" data-entity="GMN15" data-source-line="58" data-uid="ent0016" id="entity_GMN15"><path d="M395.18,176.0269 L395.18,216.2925 A0,0 0 0 0 395.18,216.2925 L465.17,216.2925 L411.6,308.4969 L473.17,216.2925 L567.324,216.2925 A0,0 0 0 0 567.324,216.2925 L567.324,186.0269 L557.324,176.0269 L395.18,176.0269 A0,0 0 0 0 395.18,176.0269" fill="#EAEAEA" style="stroke:#181818;stroke-width:0.5;"/><path d="M557.324,176.0269 L557.324,186.0269 L567.324,186.0269 L557.324,176.0269" fill="#EAEAEA" style="stroke:#181818;stroke-width:0.5;"/><text fill="#000000" font-family="sans-serif" font-size="13" lengthAdjust="spacing" textLength="147.0117" x="405.3123" y="193.0938">badges assigned to an</text><text fill="#000000" font-family="sans-serif" font-size="13" lengthAdjust="spacing" textLength="40.0601" x="401.18" y="208.2266">object</text></g><!--class ObjBadgeState--><g class="entity" data-entity="ObjBadgeState" data-source-line="62" data-uid="ent0018" id="entity_ObjBadgeState"><rect fill="#FFFFFF" height="105.1875" rx="2.5" ry="2.5" style="stroke:#181818;stroke-width:0.5;" width="150.7881" x="401.86" y="465.7969"/><ellipse cx="416.86" cy="481.7969" fill="#ADD1B2" rx="11" ry="11" style="stroke:#181818;stroke-width:1;"/><path d="M419.8288,487.4375 Q419.2506,487.7344 418.61,487.875 Q417.9694,488.0313 417.2663,488.0313 Q414.7663,488.0313 413.4381,486.3906 Q412.1256,484.7344 412.1256,481.6094 Q412.1256,478.4844 413.4381,476.8281 Q414.7663,475.1719 417.2663,475.1719 Q417.9694,475.1719 418.61,475.3281 Q419.2663,475.4844 419.8288,475.7813 L419.8288,478.5 Q419.2038,477.9219 418.61,477.6563 Q418.0163,477.375 417.3913,477.375 Q416.0475,477.375 415.36,478.4531 Q414.6725,479.5156 414.6725,481.6094 Q414.6725,483.7031 415.36,484.7813 Q416.0475,485.8438 417.3913,485.8438 Q418.0163,485.8438 418.61,485.5781 Q419.2038,485.2969 419.8288,484.7188 L419.8288,487.4375 Z " fill="#000000"/><text fill="#000000" font-family="sans-serif" font-size="14" font-weight="bold" lengthAdjust="spacing" textLength="118.7881" x="430.86" y="486.6436">ObjBadgeState</text><line style="stroke:#181818;stroke-width:0.5;" x1="402.86" x2="551.6481" y1="497.7969" y2="497.7969"/><text fill="#000000" font-family="sans-serif" font-size="14" lengthAdjust="spacing" textLength="104.1729" x="407.86" y="514.792">date DateTime</text><text fill="#000000" font-family="sans-serif" font-size="14" lengthAdjust="spacing" textLength="99.8047" x="407.86" y="531.0889">revision string</text><text fill="#000000" font-family="sans-serif" font-size="14" lengthAdjust="spacing" textLength="96.6191" x="407.86" y="547.3857">caption string</text><text fill="#000000" font-family="sans-serif" font-size="14" lengthAdjust="spacing" textLength="98.5879" x="407.86" y="563.6826">stateRef UUID</text></g><g class="entity" data-entity="GMN19" data-source-line="72" data-uid="ent0020" id="entity_GMN19"><path d="M529.47,333.0669 L529.47,373.3325 A0,0 0 0 0 529.47,373.3325 L578.14,373.3325 L515.03,465.5869 L586.14,373.3325 L663.0393,373.3325 A0,0 0 0 0 663.0393,373.3325 L663.0393,343.0669 L653.0393,333.0669 L529.47,333.0669 A0,0 0 0 0 529.47,333.0669" fill="#EAEAEA" style="stroke:#181818;stroke-width:0.5;"/><path d="M653.0393,333.0669 L653.0393,343.0669 L663.0393,343.0669 L653.0393,333.0669" fill="#EAEAEA" style="stroke:#181818;stroke-width:0.5;"/><text fill="#000000" font-family="sans-serif" font-size="13" lengthAdjust="spacing" textLength="108.437" x="539.6023" y="350.1338">state enty for an</text><text fill="#000000" font-family="sans-serif" font-size="13" lengthAdjust="spacing" textLength="102.7178" x="535.47" y="365.2666">assigned badge</text></g><!--link Badge to BadgeState--><g class="link" data-entity-1="Badge" data-entity-2="BadgeState" data-source-line="75" data-uid="lnk22" id="link_Badge_BadgeState"><path codeLine="75" d="M291.26,579.3169 C291.26,598.7069 291.26,620.0469 291.26,638.8069" fill="none" id="Badge-BadgeState" style="stroke:#181818;stroke-width:1;"/><text fill="#000000" font-family="sans-serif" font-size="13" lengthAdjust="spacing" textLength="24.7749" x="265.7728" y="628.1418">0..n</text></g><!--link TargetObj to ObjBadge--><g class="link" data-entity-1="TargetObj" data-entity-2="ObjBadge" data-source-line="76" data-uid="lnk23" id="link_TargetObj_ObjBadge"><path codeLine="76" d="M319.16,249.2169 C331.28,268.3969 344.88,289.9069 356.51,308.2969" fill="none" id="TargetObj-ObjBadge" style="stroke:#181818;stroke-width:1;"/><text fill="#000000" font-family="sans-serif" font-size="13" lengthAdjust="spacing" textLength="24.7749" x="326.7292" y="297.6765">0..n</text></g><!--link ObjBadge to ObjBadgeState--><g class="link" data-entity-1="ObjBadge" data-entity-2="ObjBadgeState" data-source-line="77" data-uid="lnk24" id="link_ObjBadge_ObjBadgeState"><path codeLine="77" d="M409.18,397.9269 C421.02,418.6969 435.25,443.6769 447.63,465.4069" fill="none" id="ObjBadge-ObjBadgeState" style="stroke:#181818;stroke-width:1;"/><text fill="#000000" font-family="sans-serif" font-size="13" lengthAdjust="spacing" textLength="24.7749" x="418.3466" y="454.7328">0..n</text></g><!--link ObjBadge to Badge--><g class="link" data-entity-1="ObjBadge" data-entity-2="Badge" data-source-line="78" data-uid="lnk25" id="link_ObjBadge_Badge"><path codeLine="78" d="M359.33,397.9269 C348.95,416.1569 336.72,437.6069 325.51,457.2769" fill="none" id="ObjBadge-Badge" style="stroke:#181818;stroke-width:1;stroke-dasharray:7.0,7.0;"/></g><!--link ObjBadgeState to BadgeState--><g class="link" data-entity-1="ObjBadgeState" data-entity-2="BadgeState" data-source-line="79" data-uid="lnk26" id="link_ObjBadgeState_BadgeState"><path codeLine="79" d="M420.94,571.2569 C397.74,592.6269 370.91,617.3469 347.7,638.7369" fill="none" id="ObjBadgeState-BadgeState" style="stroke:#181818;stroke-width:1;stroke-dasharray:7.0,7.0;"/></g><!--SRC=[fLFBRi8m4BpdArPmYzg8Ss-bj1A7gXAFKzM3YPTaIsAZs4L2LV-zQviOGe0U6YGIxsDsPh8fII9WlRLxgD6MMfh4R4XjHIDgKDhYMEIRej5VIZxfIZSmV7vqloInP2k4iP05AM4vCz6r80MlMc9r1pFSaI6j7c2K97abZ851chfoJDC12EDR4M3uuY_uJW18md8vdV2J4ZM2iGsfWayIJTxGrZBUCPYBiu2nmgA1zm-FF7Udv2VXo-a0gxUWrs4g5_E3ePoHrwJ8ut1IS6Bb2r19B_-SkqSz5U03rrJathBhZFsi-Qve8vVP1YLCESoofR0WGYz3AeU3GEeIvuLe2hHlgyy3vNZ-X-z-iBEPOOARFTfnZ6FDDynjeDrWZhJZRblYBQzRw0FjzjXbxRkdaNfy_Mrrwrj8ZFUyahriZteK1L4fSw92eUGIy7Phh-WMxzCrwSIw2gIBJFXlGRMRs1m-ch-MV8RheFeg_RWplXvGyGU-vbtq_AEWC_-3n_VtC1XbcHgSRjznSOxfQ5LyFVrSw8u5MGRTbc1A6mxLlm00]--></g></svg>