<svg xmlns="http://www.w3.org/2000/svg" xmlns:xlink="http://www.w3.org/1999/xlink" contentStyleType="text/css" data-diagram-type="CLASS" height="551px" preserveAspectRatio="none" style="width:664px;height:551px;background:#FFFFFF;" version="1.1" viewBox="0 0 664 551" width="664px" zoomAndPan="magnify"><title>Persons-Schema, Revision: 0</title><defs/><g><text fill="#000000" font-family="sans-serif" font-size="14" font-weight="bold" lengthAdjust="spacing" textLength="227.9238" x="211.3957" y="22.9951">Persons-Schema, Revision: 0</text><!--class Logging--><g class="entity" data-entity="Logging" data-source-line="6" data-uid="ent0002" id="entity_Logging"><rect fill="#FFFFFF" height="72.5938" rx="2.5" ry="2.5" style="stroke:#181818;stroke-width:0.5;" width="193.2344" x="158.06" y="322.7269"/><ellipse cx="218.7426" cy="338.7269" fill="#ADD1B2" rx="11" ry="11" style="stroke:#181818;stroke-width:1;"/><path d="M221.7114,344.3675 Q221.1332,344.6644 220.4926,344.805 Q219.852,344.9613 219.1489,344.9613 Q216.6489,344.9613 215.3207,343.3206 Q214.0082,341.6644 214.0082,338.5394 Q214.0082,335.4144 215.3207,333.7581 Q216.6489,332.1019 219.1489,332.1019 Q219.852,332.1019 220.4926,332.2581 Q221.1489,332.4144 221.7114,332.7113 L221.7114,335.43 Q221.0864,334.8519 220.4926,334.5863 Q219.8989,334.305 219.2739,334.305 Q217.9301,334.305 217.2426,335.3831 Q216.5551,336.4456 216.5551,338.5394 Q216.5551,340.6331 217.2426,341.7113 Q217.9301,342.7738 219.2739,342.7738 Q219.8989,342.7738 220.4926,342.5081 Q221.0864,342.2269 221.7114,341.6488 L221.7114,344.3675 Z " fill="#000000"/><text fill="#000000" font-family="sans-serif" font-size="14" font-weight="bold" lengthAdjust="spacing" textLength="63.3691" x="239.2426" y="343.5736">Logging</text><line style="stroke:#181818;stroke-width:0.5;" x1="159.06" x2="350.2944" y1="354.7269" y2="354.7269"/><text fill="#000000" font-family="sans-serif" font-size="14" lengthAdjust="spacing" textLength="181.2344" x="164.06" y="371.722">logLevel LoggingLogLevel</text><text fill="#000000" font-family="sans-serif" font-size="14" lengthAdjust="spacing" textLength="90.8154" x="164.06" y="388.0189">output string</text></g><!--class Server--><g class="entity" data-entity="Server" data-source-line="13" data-uid="ent0003" id="entity_Server"><rect fill="#FFFFFF" height="56.2969" rx="2.5" ry="2.5" style="stroke:#181818;stroke-width:0.5;" width="84.0078" x="38.68" y="330.8669"/><ellipse cx="53.68" cy="346.8669" fill="#ADD1B2" rx="11" ry="11" style="stroke:#181818;stroke-width:1;"/><path d="M56.6488,352.5075 Q56.0706,352.8044 55.43,352.945 Q54.7894,353.1013 54.0863,353.1013 Q51.5863,353.1013 50.2581,351.4606 Q48.9456,349.8044 48.9456,346.6794 Q48.9456,343.5544 50.2581,341.8981 Q51.5863,340.2419 54.0863,340.2419 Q54.7894,340.2419 55.43,340.3981 Q56.0863,340.5544 56.6488,340.8513 L56.6488,343.57 Q56.0238,342.9919 55.43,342.7263 Q54.8363,342.445 54.2113,342.445 Q52.8675,342.445 52.18,343.5231 Q51.4925,344.5856 51.4925,346.6794 Q51.4925,348.7731 52.18,349.8513 Q52.8675,350.9138 54.2113,350.9138 Q54.8363,350.9138 55.43,350.6481 Q56.0238,350.3669 56.6488,349.7888 L56.6488,352.5075 Z " fill="#000000"/><text fill="#000000" font-family="sans-serif" font-size="14" font-weight="bold" lengthAdjust="spacing" textLength="52.0078" x="67.68" y="351.7136">Server</text><line style="stroke:#181818;stroke-width:0.5;" x1="39.68" x2="121.6878" y1="362.8669" y2="362.8669"/><text fill="#000000" font-family="sans-serif" font-size="14" lengthAdjust="spacing" textLength="51.3994" x="44.68" y="379.862">port int</text></g><g class="entity" data-entity="GMN4" data-source-line="20" data-uid="ent0005" id="entity_GMN4"><path d="M6,190.5769 L6,245.9753 A0,0 0 0 0 6,245.9753 L76.68,245.9753 L80.68,330.5369 L84.68,245.9753 L155.3623,245.9753 A0,0 0 0 0 155.3623,245.9753 L155.3623,200.5769 L145.3623,190.5769 L6,190.5769 A0,0 0 0 0 6,190.5769" fill="#EAEAEA" style="stroke:#181818;stroke-width:0.5;"/><path d="M145.3623,190.5769 L145.3623,200.5769 L155.3623,200.5769 L145.3623,190.5769" fill="#EAEAEA" style="stroke:#181818;stroke-width:0.5;"/><text fill="#000000" font-family="sans-serif" font-size="13" lengthAdjust="spacing" textLength="107.7197" x="16.1323" y="207.6438">Container object</text><text fill="#000000" font-family="sans-serif" font-size="13" lengthAdjust="spacing" textLength="37.1973" x="12" y="222.7766">for all</text><text fill="#000000" font-family="sans-serif" font-size="13" lengthAdjust="spacing" textLength="128.3623" x="12" y="237.9094">configuration of the</text></g><!--class Storage--><g class="entity" data-entity="Storage" data-source-line="26" data-uid="ent0007" id="entity_Storage"><rect fill="#FFFFFF" height="56.2969" rx="2.5" ry="2.5" style="stroke:#181818;stroke-width:0.5;" width="94.2617" x="386.55" y="330.8669"/><ellipse cx="401.55" cy="346.8669" fill="#ADD1B2" rx="11" ry="11" style="stroke:#181818;stroke-width:1;"/><path d="M404.5188,352.5075 Q403.9406,352.8044 403.3,352.945 Q402.6594,353.1013 401.9563,353.1013 Q399.4563,353.1013 398.1281,351.4606 Q396.8156,349.8044 396.8156,346.6794 Q396.8156,343.5544 398.1281,341.8981 Q399.4563,340.2419 401.9563,340.2419 Q402.6594,340.2419 403.3,340.3981 Q403.9563,340.5544 404.5188,340.8513 L404.5188,343.57 Q403.8938,342.9919 403.3,342.7263 Q402.7063,342.445 402.0813,342.445 Q400.7375,342.445 400.05,343.5231 Q399.3625,344.5856 399.3625,346.6794 Q399.3625,348.7731 400.05,349.8513 Q400.7375,350.9138 402.0813,350.9138 Q402.7063,350.9138 403.3,350.6481 Q403.8938,350.3669 404.5188,349.7888 L404.5188,352.5075 Z " fill="#000000"/><text fill="#000000" font-family="sans-serif" font-size="14" font-weight="bold" lengthAdjust="spacing" textLength="62.2617" x="415.55" y="351.7136">Storage</text><line style="stroke:#181818;stroke-width:0.5;" x1="387.55" x2="479.8117" y1="362.8669" y2="362.8669"/><text fill="#000000" font-family="sans-serif" font-size="14" lengthAdjust="spacing" textLength="82.168" x="392.55" y="379.862">sqlite Sqlite</text></g><g class="entity" data-entity="GMN8" data-source-line="33" data-uid="ent0009" id="entity_GMN8"><path d="M367.26,190.5769 L367.26,245.9753 A0,0 0 0 0 367.26,245.9753 L429.68,245.9753 L433.68,330.5369 L437.68,245.9753 L500.1121,245.9753 A0,0 0 0 0 500.1121,245.9753 L500.1121,200.5769 L490.1121,190.5769 L367.26,190.5769 A0,0 0 0 0 367.26,190.5769" fill="#EAEAEA" style="stroke:#181818;stroke-width:0.5;"/><path d="M490.1121,190.5769 L490.1121,200.5769 L500.1121,200.5769 L490.1121,190.5769" fill="#EAEAEA" style="stroke:#181818;stroke-width:0.5;"/><text fill="#000000" font-family="sans-serif" font-size="13" lengthAdjust="spacing" textLength="107.7197" x="377.3923" y="207.6438">Container object</text><text fill="#000000" font-family="sans-serif" font-size="13" lengthAdjust="spacing" textLength="90.7144" x="373.26" y="222.7766">for all storage</text><text fill="#000000" font-family="sans-serif" font-size="13" lengthAdjust="spacing" textLength="93.0059" x="373.26" y="237.9094">configurations</text></g><!--class Sqlite--><g class="entity" data-entity="Sqlite" data-source-line="38" data-uid="ent0011" id="entity_Sqlite"><rect fill="#FFFFFF" height="56.2969" rx="2.5" ry="2.5" style="stroke:#181818;stroke-width:0.5;" width="77.96" x="470.7" y="471.6169"/><ellipse cx="485.7316" cy="487.6169" fill="#ADD1B2" rx="11" ry="11" style="stroke:#181818;stroke-width:1;"/><path d="M488.7004,493.2575 Q488.1223,493.5544 487.4816,493.695 Q486.841,493.8513 486.1379,493.8513 Q483.6379,493.8513 482.3098,492.2106 Q480.9973,490.5544 480.9973,487.4294 Q480.9973,484.3044 482.3098,482.6481 Q483.6379,480.9919 486.1379,480.9919 Q486.841,480.9919 487.4816,481.1481 Q488.1379,481.3044 488.7004,481.6013 L488.7004,484.32 Q488.0754,483.7419 487.4816,483.4763 Q486.8879,483.195 486.2629,483.195 Q484.9191,483.195 484.2316,484.2731 Q483.5441,485.3356 483.5441,487.4294 Q483.5441,489.5231 484.2316,490.6013 Q484.9191,491.6638 486.2629,491.6638 Q486.8879,491.6638 487.4816,491.3981 Q488.0754,491.1169 488.7004,490.5388 L488.7004,493.2575 Z " fill="#000000"/><text fill="#000000" font-family="sans-serif" font-size="14" font-weight="bold" lengthAdjust="spacing" textLength="45.8896" x="499.7387" y="492.4636">Sqlite</text><line style="stroke:#181818;stroke-width:0.5;" x1="471.7" x2="547.66" y1="503.6169" y2="503.6169"/><text fill="#000000" font-family="sans-serif" font-size="14" lengthAdjust="spacing" textLength="65.96" x="476.7" y="520.612">file string</text></g><g class="entity" data-entity="GMN12" data-source-line="45" data-uid="ent0013" id="entity_GMN12"><path d="M515.64,331.3169 L515.64,386.7153 A0,0 0 0 0 515.64,386.7153 L567.65,386.7153 L524.94,471.2769 L575.65,386.7153 L657.7152,386.7153 A0,0 0 0 0 657.7152,386.7153 L657.7152,341.3169 L647.7152,331.3169 L515.64,331.3169 A0,0 0 0 0 515.64,331.3169" fill="#EAEAEA" style="stroke:#181818;stroke-width:0.5;"/><path d="M647.7152,331.3169 L647.7152,341.3169 L657.7152,341.3169 L647.7152,331.3169" fill="#EAEAEA" style="stroke:#181818;stroke-width:0.5;"/><text fill="#000000" font-family="sans-serif" font-size="13" lengthAdjust="spacing" textLength="116.9429" x="525.7723" y="348.3838">Configurations for</text><text fill="#000000" font-family="sans-serif" font-size="13" lengthAdjust="spacing" textLength="114.3276" x="521.64" y="363.5166">the sqlite storage</text><text fill="#000000" font-family="sans-serif" font-size="13" lengthAdjust="spacing" textLength="55.3833" x="521.64" y="378.6494">backend</text></g><!--class AppConfig--><g class="entity" data-entity="AppConfig" data-source-line="50" data-uid="ent0015" id="entity_AppConfig"><rect fill="#FFFFFF" height="88.8906" rx="2.5" ry="2.5" style="stroke:#181818;stroke-width:0.5;" width="124.4102" x="192.48" y="173.8269"/><ellipse cx="212.3228" cy="189.8269" fill="#ADD1B2" rx="11" ry="11" style="stroke:#181818;stroke-width:1;"/><path d="M215.2915,195.4675 Q214.7134,195.7644 214.0728,195.905 Q213.4321,196.0613 212.729,196.0613 Q210.229,196.0613 208.9009,194.4206 Q207.5884,192.7644 207.5884,189.6394 Q207.5884,186.5144 208.9009,184.8581 Q210.229,183.2019 212.729,183.2019 Q213.4321,183.2019 214.0728,183.3581 Q214.729,183.5144 215.2915,183.8113 L215.2915,186.53 Q214.6665,185.9519 214.0728,185.6863 Q213.479,185.405 212.854,185.405 Q211.5103,185.405 210.8228,186.4831 Q210.1353,187.5456 210.1353,189.6394 Q210.1353,191.7331 210.8228,192.8113 Q211.5103,193.8738 212.854,193.8738 Q213.479,193.8738 214.0728,193.6081 Q214.6665,193.3269 215.2915,192.7488 L215.2915,195.4675 Z " fill="#000000"/><text fill="#000000" font-family="sans-serif" font-size="14" font-weight="bold" lengthAdjust="spacing" textLength="81.6484" x="227.3989" y="194.6736">AppConfig</text><line style="stroke:#181818;stroke-width:0.5;" x1="193.48" x2="315.8902" y1="205.8269" y2="205.8269"/><text fill="#000000" font-family="sans-serif" font-size="14" lengthAdjust="spacing" textLength="94.6777" x="198.48" y="222.822">server Server</text><text fill="#000000" font-family="sans-serif" font-size="14" lengthAdjust="spacing" textLength="112.4102" x="198.48" y="239.1189">storage Storage</text><text fill="#000000" font-family="sans-serif" font-size="14" lengthAdjust="spacing" textLength="112.1162" x="198.48" y="255.4157">logging Logging</text></g><g class="entity" data-entity="GMN16" data-source-line="59" data-uid="ent0017" id="entity_GMN16"><path d="M176.78,43.2969 L176.78,113.8281 A0,0 0 0 0 176.78,113.8281 L250.68,113.8281 L254.68,173.3869 L258.68,113.8281 L332.5915,113.8281 A0,0 0 0 0 332.5915,113.8281 L332.5915,53.2969 L322.5915,43.2969 L176.78,43.2969 A0,0 0 0 0 176.78,43.2969" fill="#EAEAEA" style="stroke:#181818;stroke-width:0.5;"/><path d="M322.5915,43.2969 L322.5915,53.2969 L332.5915,53.2969 L322.5915,43.2969" fill="#EAEAEA" style="stroke:#181818;stroke-width:0.5;"/><text fill="#000000" font-family="sans-serif" font-size="13" lengthAdjust="spacing" textLength="130.6792" x="186.9123" y="60.3638">The schema defines</text><text fill="#000000" font-family="sans-serif" font-size="13" lengthAdjust="spacing" textLength="121.418" x="182.78" y="75.4966">the model used by</text><text fill="#000000" font-family="sans-serif" font-size="13" lengthAdjust="spacing" textLength="111.6997" x="182.78" y="90.6294">the configuration</text><text fill="#000000" font-family="sans-serif" font-size="13" lengthAdjust="spacing" textLength="121.8369" x="182.78" y="105.7622">file of the program</text></g><!--class LoggingLogLevel--><g class="entity" data-entity="LoggingLogLevel" data-source-line="65" data-uid="ent0019" id="entity_LoggingLogLevel"><rect fill="#FFFFFF" height="88.8906" rx="2.5" ry="2.5" style="stroke:#181818;stroke-width:0.5;" width="165.7656" x="171.8" y="455.3169"/><ellipse cx="186.8" cy="471.3169" fill="#EB937F" rx="11" ry="11" style="stroke:#181818;stroke-width:1;"/><path d="M190.9094,477.3169 L183.1906,477.3169 L183.1906,464.9263 L190.9094,464.9263 L190.9094,467.0825 L185.6438,467.0825 L185.6438,469.7544 L190.4094,469.7544 L190.4094,471.9106 L185.6438,471.9106 L185.6438,475.1606 L190.9094,475.1606 L190.9094,477.3169 Z " fill="#000000"/><text fill="#000000" font-family="sans-serif" font-size="14" font-weight="bold" lengthAdjust="spacing" textLength="133.7656" x="200.8" y="476.1636">LoggingLogLevel</text><line style="stroke:#181818;stroke-width:0.5;" x1="172.8" x2="336.5656" y1="487.3169" y2="487.3169"/><text fill="#000000" font-family="sans-serif" font-size="14" lengthAdjust="spacing" textLength="44.1465" x="177.8" y="504.312">debug</text><text fill="#000000" font-family="sans-serif" font-size="14" lengthAdjust="spacing" textLength="26.2568" x="177.8" y="520.6089">info</text><text fill="#000000" font-family="sans-serif" font-size="14" lengthAdjust="spacing" textLength="34.4463" x="177.8" y="536.9057">error</text></g><!--link Logging to LoggingLogLevel--><g class="link" data-entity-1="Logging" data-entity-2="LoggingLogLevel" data-source-line="70" data-uid="lnk20" id="link_Logging_LoggingLogLevel"><path codeLine="70" d="M254.68,395.7469 C254.68,413.8169 254.68,435.8969 254.68,454.9769" fill="none" id="Logging-LoggingLogLevel" style="stroke:#181818;stroke-width:1;"/></g><!--link Storage to Sqlite--><g class="link" data-entity-1="Storage" data-entity-2="Sqlite" data-source-line="71" data-uid="lnk21" id="link_Storage_Sqlite"><path codeLine="71" d="M448.7,387.4269 C462.02,411.7569 481.38,447.0969 494.7,471.4069" fill="none" id="Storage-Sqlite" style="stroke:#181818;stroke-width:1;"/></g><!--link AppConfig to Server--><g class="link" data-entity-1="AppConfig" data-entity-2="Server" data-source-line="72" data-uid="lnk22" id="link_AppConfig_Server"><path codeLine="72" d="M199.63,263.1769 C171.95,285.2469 139.26,311.3069 115.16,330.5269" fill="none" id="AppConfig-Server" style="stroke:#181818;stroke-width:1;"/></g><!--link AppConfig to Storage--><g class="link" data-entity-1="AppConfig" data-entity-2="Storage" data-source-line="73" data-uid="lnk23" id="link_AppConfig_Storage"><path codeLine="73" d="M311.32,263.1769 C339.79,285.2469 373.42,311.3069 398.21,330.5269" fill="none" id="AppConfig-Storage" style="stroke:#181818;stroke-width:1;"/></g><!--link AppConfig to Logging--><g class="link" data-entity-1="AppConfig" data-entity-2="Logging" data-source-line="74" data-uid="lnk24" id="link_AppConfig_Logging"><path codeLine="74" d="M254.68,263.1769 C254.68,282.2269 254.68,304.2569 254.68,322.2869" fill="none" id="AppConfig-Logging" style="stroke:#181818;stroke-width:1;"/></g><!--SRC=[VPF1JiCm38RlUGfhEo1DJEBC3H2STa2C5qWRjmjhuvAaaoQqTyTfaj5i4zkXiXCxd__ysMc5WFtWZz2Ztv5omksr6QILFHZo-2phVMjfDEg5EhAmV7qAVo6yzXt2Erf7ngstzGvxUGyVUD1Eatc41o7gJZe7YzLgGsshJRjQBK0wI170yctwmOy0wAZTu06xlBf9CI_Hw8VHW_EMy-8anApp5kq1RMeSWxBlGDQ3DZxMXOd0qm3KfDsy1Lx8UAaDbrBrXRNdNCEZoYwSNfDfT3jQwNciKETtoEax5yhlm8qLR-bxQPH0eoRDvdoUh6mn0yQe97JVdMQgxVIvWHbh_kTaSVAkWjVTP9fEoaZnz8AeqNopSxaBdiWPSMOd1HJEiZfveZ-cYas4jmLw6eRO9_6SumkHujMUxoprdgdJ9LSb_ro3dpi7zi-0ENaM53QigKliFIasuUXGGNLCkKBIh4zq0WoMMduhiz7GZFtCzDd8fVbpjXXIOJK6EcqQuWzQovAUH7ulwpLSlOxigB2MRkPFmIaP5Rj89jNAR5Rk5m00]--></g></svg>