<svg xmlns="http://www.w3.org/2000/svg" xmlns:xlink="http://www.w3.org/1999/xlink" contentStyleType="text/css" data-diagram-type="CLASS" height="486px" preserveAspectRatio="none" style="width:707px;height:486px;background:#FFFFFF;" version="1.1" viewBox="0 0 707 486" width="707px" zoomAndPan="magnify"><title>Persons-Schema, Revision: 0</title><defs/><g><text fill="#000000" font-family="sans-serif" font-size="14" font-weight="bold" lengthAdjust="spacing" textLength="227.9238" x="232.6289" y="22.9951">Persons-Schema, Revision: 0</text><!--class Server--><g class="entity" data-entity="Server" data-source-line="6" data-uid="ent0002" id="entity_Server"><rect fill="#FFFFFF" height="56.2969" rx="2.5" ry="2.5" style="stroke:#181818;stroke-width:0.5;" width="84.0078" x="146.09" y="306.4269"/><ellipse cx="161.09" cy="322.4269" fill="#ADD1B2" rx="11" ry="11" style="stroke:#181818;stroke-width:1;"/><path d="M164.0588,328.0675 Q163.4806,328.3644 162.84,328.505 Q162.1994,328.6613 161.4963,328.6613 Q158.9963,328.6613 157.6681,327.0206 Q156.3556,325.3644 156.3556,322.2394 Q156.3556,319.1144 157.6681,317.4581 Q158.9963,315.8019 161.4963,315.8019 Q162.1994,315.8019 162.84,315.9581 Q163.4963,316.1144 164.0588,316.4113 L164.0588,319.13 Q163.4338,318.5519 162.84,318.2863 Q162.2463,318.005 161.6213,318.005 Q160.2775,318.005 159.59,319.0831 Q158.9025,320.1456 158.9025,322.2394 Q158.9025,324.3331 159.59,325.4113 Q160.2775,326.4738 161.6213,326.4738 Q162.2463,326.4738 162.84,326.2081 Q163.4338,325.9269 164.0588,325.3488 L164.0588,328.0675 Z " fill="#000000"/><text fill="#000000" font-family="sans-serif" font-size="14" font-weight="bold" lengthAdjust="spacing" textLength="52.0078" x="175.09" y="327.2736">Server</text><line style="stroke:#181818;stroke-width:0.5;" x1="147.09" x2="229.0978" y1="338.4269" y2="338.4269"/><text fill="#000000" font-family="sans-serif" font-size="14" lengthAdjust="spacing" textLength="51.3994" x="152.09" y="355.422">port int</text></g><g class="entity" data-entity="GMN3" data-source-line="13" data-uid="ent0004" id="entity_GMN3"><path d="M6,189.9969 L6,230.2625 A0,0 0 0 0 6,230.2625 L104.14,230.2625 L166.75,306.0669 L112.14,230.2625 L180.1816,230.2625 A0,0 0 0 0 180.1816,230.2625 L180.1816,199.9969 L170.1816,189.9969 L6,189.9969 A0,0 0 0 0 6,189.9969" fill="#EAEAEA" style="stroke:#181818;stroke-width:0.5;"/><path d="M170.1816,189.9969 L170.1816,199.9969 L180.1816,199.9969 L170.1816,189.9969" fill="#EAEAEA" style="stroke:#181818;stroke-width:0.5;"/><text fill="#000000" font-family="sans-serif" font-size="13" lengthAdjust="spacing" textLength="149.0493" x="16.1323" y="207.0638">Container object for all</text><text fill="#000000" font-family="sans-serif" font-size="13" lengthAdjust="spacing" textLength="128.3623" x="12" y="222.1966">configuration of the</text></g><!--class Storage--><g class="entity" data-entity="Storage" data-source-line="18" data-uid="ent0006" id="entity_Storage"><rect fill="#FFFFFF" height="56.2969" rx="2.5" ry="2.5" style="stroke:#181818;stroke-width:0.5;" width="94.2617" x="517.96" y="306.4269"/><ellipse cx="532.96" cy="322.4269" fill="#ADD1B2" rx="11" ry="11" style="stroke:#181818;stroke-width:1;"/><path d="M535.9288,328.0675 Q535.3506,328.3644 534.71,328.505 Q534.0694,328.6613 533.3663,328.6613 Q530.8663,328.6613 529.5381,327.0206 Q528.2256,325.3644 528.2256,322.2394 Q528.2256,319.1144 529.5381,317.4581 Q530.8663,315.8019 533.3663,315.8019 Q534.0694,315.8019 534.71,315.9581 Q535.3663,316.1144 535.9288,316.4113 L535.9288,319.13 Q535.3038,318.5519 534.71,318.2863 Q534.1163,318.005 533.4913,318.005 Q532.1475,318.005 531.46,319.0831 Q530.7725,320.1456 530.7725,322.2394 Q530.7725,324.3331 531.46,325.4113 Q532.1475,326.4738 533.4913,326.4738 Q534.1163,326.4738 534.71,326.2081 Q535.3038,325.9269 535.9288,325.3488 L535.9288,328.0675 Z " fill="#000000"/><text fill="#000000" font-family="sans-serif" font-size="14" font-weight="bold" lengthAdjust="spacing" textLength="62.2617" x="546.96" y="327.2736">Storage</text><line style="stroke:#181818;stroke-width:0.5;" x1="518.96" x2="611.2217" y1="338.4269" y2="338.4269"/><text fill="#000000" font-family="sans-serif" font-size="14" lengthAdjust="spacing" textLength="82.168" x="523.96" y="355.422">sqlite Sqlite</text></g><g class="entity" data-entity="GMN7" data-source-line="25" data-uid="ent0008" id="entity_GMN7"><path d="M526,189.9969 L526,230.2625 A0,0 0 0 0 526,230.2625 L601.49,230.2625 L575.87,306.0669 L609.49,230.2625 L700.1816,230.2625 A0,0 0 0 0 700.1816,230.2625 L700.1816,199.9969 L690.1816,189.9969 L526,189.9969 A0,0 0 0 0 526,189.9969" fill="#EAEAEA" style="stroke:#181818;stroke-width:0.5;"/><path d="M690.1816,189.9969 L690.1816,199.9969 L700.1816,199.9969 L690.1816,189.9969" fill="#EAEAEA" style="stroke:#181818;stroke-width:0.5;"/><text fill="#000000" font-family="sans-serif" font-size="13" lengthAdjust="spacing" textLength="149.0493" x="536.1323" y="207.0638">Container object for all</text><text fill="#000000" font-family="sans-serif" font-size="13" lengthAdjust="spacing" textLength="146.5229" x="532" y="222.1966">storage configurations</text></g><!--class Sqlite--><g class="entity" data-entity="Sqlite" data-source-line="29" data-uid="ent0010" id="entity_Sqlite"><rect fill="#FFFFFF" height="56.2969" rx="2.5" ry="2.5" style="stroke:#181818;stroke-width:0.5;" width="77.96" x="442.11" y="422.7169"/><ellipse cx="457.1416" cy="438.7169" fill="#ADD1B2" rx="11" ry="11" style="stroke:#181818;stroke-width:1;"/><path d="M460.1104,444.3575 Q459.5323,444.6544 458.8916,444.795 Q458.251,444.9513 457.5479,444.9513 Q455.0479,444.9513 453.7198,443.3106 Q452.4073,441.6544 452.4073,438.5294 Q452.4073,435.4044 453.7198,433.7481 Q455.0479,432.0919 457.5479,432.0919 Q458.251,432.0919 458.8916,432.2481 Q459.5479,432.4044 460.1104,432.7013 L460.1104,435.42 Q459.4854,434.8419 458.8916,434.5763 Q458.2979,434.295 457.6729,434.295 Q456.3291,434.295 455.6416,435.3731 Q454.9541,436.4356 454.9541,438.5294 Q454.9541,440.6231 455.6416,441.7013 Q456.3291,442.7638 457.6729,442.7638 Q458.2979,442.7638 458.8916,442.4981 Q459.4854,442.2169 460.1104,441.6388 L460.1104,444.3575 Z " fill="#000000"/><text fill="#000000" font-family="sans-serif" font-size="14" font-weight="bold" lengthAdjust="spacing" textLength="45.8896" x="471.1487" y="443.5636">Sqlite</text><line style="stroke:#181818;stroke-width:0.5;" x1="443.11" x2="519.07" y1="454.7169" y2="454.7169"/><text fill="#000000" font-family="sans-serif" font-size="14" lengthAdjust="spacing" textLength="65.96" x="448.11" y="471.712">file string</text></g><g class="entity" data-entity="GMN11" data-source-line="36" data-uid="ent0012" id="entity_GMN11"><path d="M313.4,314.4369 L313.4,354.7025 A0,0 0 0 0 313.4,354.7025 L408.17,354.7025 L461.02,422.2269 L416.17,354.7025 L482.7765,354.7025 A0,0 0 0 0 482.7765,354.7025 L482.7765,324.4369 L472.7765,314.4369 L313.4,314.4369 A0,0 0 0 0 313.4,314.4369" fill="#EAEAEA" style="stroke:#181818;stroke-width:0.5;"/><path d="M472.7765,314.4369 L472.7765,324.4369 L482.7765,324.4369 L472.7765,314.4369" fill="#EAEAEA" style="stroke:#181818;stroke-width:0.5;"/><text fill="#000000" font-family="sans-serif" font-size="13" lengthAdjust="spacing" textLength="142.4097" x="323.5323" y="331.5038">Configurations for the</text><text fill="#000000" font-family="sans-serif" font-size="13" lengthAdjust="spacing" textLength="148.3765" x="319.4" y="346.6366">sqlite storage backend</text></g><!--class BadginatorConfigurationModel--><g class="entity" data-entity="BadginatorConfigurationModel" data-source-line="40" data-uid="ent0014" id="entity_BadginatorConfigurationModel"><rect fill="#FFFFFF" height="72.5938" rx="2.5" ry="2.5" style="stroke:#181818;stroke-width:0.5;" width="275.6191" x="215.28" y="173.8269"/><ellipse cx="230.28" cy="189.8269" fill="#ADD1B2" rx="11" ry="11" style="stroke:#181818;stroke-width:1;"/><path d="M233.2488,195.4675 Q232.6706,195.7644 232.03,195.905 Q231.3894,196.0613 230.6863,196.0613 Q228.1863,196.0613 226.8581,194.4206 Q225.5456,192.7644 225.5456,189.6394 Q225.5456,186.5144 226.8581,184.8581 Q228.1863,183.2019 230.6863,183.2019 Q231.3894,183.2019 232.03,183.3581 Q232.6863,183.5144 233.2488,183.8113 L233.2488,186.53 Q232.6238,185.9519 232.03,185.6863 Q231.4363,185.405 230.8113,185.405 Q229.4675,185.405 228.78,186.4831 Q228.0925,187.5456 228.0925,189.6394 Q228.0925,191.7331 228.78,192.8113 Q229.4675,193.8738 230.8113,193.8738 Q231.4363,193.8738 232.03,193.6081 Q232.6238,193.3269 233.2488,192.7488 L233.2488,195.4675 Z " fill="#000000"/><text fill="#000000" font-family="sans-serif" font-size="14" font-weight="bold" lengthAdjust="spacing" textLength="243.6191" x="244.28" y="194.6736">BadginatorConfigurationModel</text><line style="stroke:#181818;stroke-width:0.5;" x1="216.28" x2="489.8991" y1="205.8269" y2="205.8269"/><text fill="#000000" font-family="sans-serif" font-size="14" lengthAdjust="spacing" textLength="94.6777" x="221.28" y="222.822">server Server</text><text fill="#000000" font-family="sans-serif" font-size="14" lengthAdjust="spacing" textLength="112.4102" x="221.28" y="239.1189">storage Storage</text></g><g class="entity" data-entity="GMN15" data-source-line="48" data-uid="ent0016" id="entity_GMN15"><path d="M262.45,43.2969 L262.45,113.8281 A0,0 0 0 0 262.45,113.8281 L349.09,113.8281 L353.09,173.4069 L357.09,113.8281 L443.7283,113.8281 A0,0 0 0 0 443.7283,113.8281 L443.7283,53.2969 L433.7283,43.2969 L262.45,43.2969 A0,0 0 0 0 262.45,43.2969" fill="#EAEAEA" style="stroke:#181818;stroke-width:0.5;"/><path d="M433.7283,43.2969 L433.7283,53.2969 L443.7283,53.2969 L433.7283,43.2969" fill="#EAEAEA" style="stroke:#181818;stroke-width:0.5;"/><text fill="#000000" font-family="sans-serif" font-size="13" lengthAdjust="spacing" textLength="156.146" x="272.5823" y="60.3638">The schema defines the</text><text fill="#000000" font-family="sans-serif" font-size="13" lengthAdjust="spacing" textLength="121.418" x="268.45" y="75.4966">model used by the</text><text fill="#000000" font-family="sans-serif" font-size="13" lengthAdjust="spacing" textLength="152.293" x="268.45" y="90.6294">configuration file of the</text><text fill="#000000" font-family="sans-serif" font-size="13" lengthAdjust="spacing" textLength="55.7769" x="268.45" y="105.7622">program</text></g><!--link Storage to Sqlite--><g class="link" data-entity-1="Storage" data-entity-2="Sqlite" data-source-line="53" data-uid="lnk18" id="link_Storage_Sqlite"><path codeLine="53" d="M544.97,362.9469 C531.77,380.9169 514.57,404.3169 501.34,422.3169" fill="none" id="Storage-Sqlite" style="stroke:#181818;stroke-width:1;"/></g><!--link BadginatorConfigurationModel to Server--><g class="link" data-entity-1="BadginatorConfigurationModel" data-entity-2="Server" data-source-line="54" data-uid="lnk19" id="link_BadginatorConfigurationModel_Server"><path codeLine="54" d="M304.92,246.8669 C279.53,265.7169 248.84,288.4869 225.3,305.9569" fill="none" id="BadginatorConfigurationModel-Server" style="stroke:#181818;stroke-width:1;"/></g><!--link BadginatorConfigurationModel to Storage--><g class="link" data-entity-1="BadginatorConfigurationModel" data-entity-2="Storage" data-source-line="55" data-uid="lnk20" id="link_BadginatorConfigurationModel_Storage"><path codeLine="55" d="M414.98,246.8669 C447.73,265.7869 487.33,288.6569 517.63,306.1569" fill="none" id="BadginatorConfigurationModel-Storage" style="stroke:#181818;stroke-width:1;"/></g><!--SRC=[XPB1JiCm38RlUGfhEqogcCIP6vlWXeGOBv0sRXlMnYLE9qs8TyTDsh72jBM7AgcT__l_kBO60Tik7A75K9DXnNlhEkrr2uu2RdInhpprpcof8G_BfyVXLIhOq22yecTolDuLDRRw3jxmODcIUu1xfOf6CyCYotRe3-YpR06Q8Iq0bi_nWIy5q94FO5rGtqgUGHS2TK3bM2qbi2KNj7NIIla75W5AmT5D8_yASgMjUg-3I0zTeKRPNl7Gl0BkSobfM-sCGcUYhtEwG5vNEE6brPoFFnihJBlukG2PUcvGydZoZ9Ol4aMT2IXfptXAAzbpyDPL5sWIPO8vKueeAPdHpqIKooNZvN0ssbJMQIcS7VP21fiHy5h9dnZJrP_kTDAVyljdvThHWy7tMap4qGE3fSJEey4sYlUC1lBZk3UVaXZXQLGwJvMC_6y2qnYirp05UjLdh4k-RjUDTdy0]--></g></svg>